<svg aria-hidden="true" style="width:0;height:0;position:absolute;overflow:hidden" xmlns="http://www.w3.org/2000/svg"><defs><symbol id="icon-close" viewBox="0 0 32 32"><path d="M1.646 32a1.646 1.646 0 0 1-1.163-2.811L29.19.482a1.646 1.646 0 1 1 2.328 2.329L2.811 31.517A1.65 1.65 0 0 1 1.646 32z"/><path d="M30.355 32c-.421 0-.843-.16-1.163-.483L.483 2.811A1.647 1.647 0 0 1 2.812.482l28.707 28.707A1.646 1.646 0 0 1 30.356 32z"/></symbol><symbol id="icon-team" viewBox="0 0 32 32"><path d="M26.375 14.976c1.165-1.395 1.852-3.297 1.852-5.325 0-4.191-2.912-7.601-6.492-7.601-2.483 0-4.643 1.642-5.734 4.046C14.91 3.692 12.75 2.05 10.267 2.05c-3.58 0-6.492 3.41-6.492 7.601 0 2.033.686 3.932 1.851 5.325-2.036.957-5.625 2.753-5.625 8.159v1.995h6.124c-.245.813-.39 1.747-.39 2.826v1.995h20.531v-1.995c0-1.079-.145-2.013-.39-2.826h6.125v-1.995c0-5.405-3.589-7.201-5.625-8.158zM7.054 23.134h-5.06c0-6.006 5.275-6.004 6.445-7.575l.134-.716C6.928 14.009 5.768 12 5.768 9.65c0-3.096 2.014-5.606 4.497-5.606 1.759 0 3.278 1.263 4.016 3.098-2.749.884-4.774 3.834-4.774 7.329 0 2.033.686 3.932 1.851 5.325-1.247.586-3.074 1.488-4.304 3.339zm9.004 4.821h-8.33c0-6.006 5.275-6.004 6.445-7.575l.134-.716c-1.645-.834-2.805-2.843-2.805-5.193 0-3.096 2.014-5.606 4.497-5.606s4.497 2.51 4.497 5.606c0 2.33-1.14 4.327-2.763 5.173l.153.814c1.284 1.494 6.383 1.592 6.383 7.497h-8.212zm8.886-4.821c-1.231-1.85-3.058-2.752-4.304-3.338 1.165-1.395 1.852-3.297 1.852-5.325 0-3.495-2.026-6.444-4.773-7.328.738-1.836 2.257-3.098 4.016-3.098 2.484 0 4.497 2.51 4.497 5.606 0 2.33-1.14 4.327-2.763 5.173l.153.814c1.284 1.494 6.383 1.592 6.383 7.496h-5.061z"/></symbol><symbol id="icon-network" viewBox="0 0 32 32"><path d="M20.026 16c0-2.223-1.81-4.026-4.026-4.026S11.974 13.777 11.974 16s1.81 4.026 4.026 4.026 4.026-1.803 4.026-4.026zM16 18.452c-1.351 0-2.452-1.102-2.452-2.452S14.65 13.548 16 13.548 18.452 14.65 18.452 16 17.35 18.452 16 18.452zM10.171 15.213c-.433 0-.787.354-.787.787s.354.787.787.787.787-.354.787-.787-.354-.787-.787-.787zM6.807 16c0 .433.354.787.787.787s.787-.354.787-.787-.354-.787-.787-.787-.787.354-.787.787zM5.803 16c0-1.6-1.305-2.905-2.905-2.905a2.905 2.905 0 0 0 .007 5.81c1.6 0 2.898-1.305 2.898-2.905zm-2.898 1.331c-.734 0-1.331-.597-1.331-1.331s.597-1.331 1.331-1.331 1.331.597 1.331 1.331-.603 1.331-1.331 1.331zM25.193 16a.787.787 0 1 1-1.573 0 .787.787 0 0 1 1.573 0zM21.829 16.787c.433 0 .787-.354.787-.787s-.354-.787-.787-.787-.787.354-.787.787.354.787.787.787zM29.095 13.095c-1.6 0-2.905 1.305-2.905 2.905s1.305 2.905 2.905 2.905S32 17.6 32 16s-1.305-2.905-2.905-2.905zm0 4.236c-.734 0-1.331-.597-1.331-1.331s.597-1.331 1.331-1.331 1.331.597 1.331 1.331-.597 1.331-1.331 1.331zM16 21.043c-.433 0-.787.354-.787.787s.354.787.787.787.787-.354.787-.787-.354-.787-.787-.787zM16 23.62c-.433 0-.787.354-.787.787s.354.787.787.787.787-.354.787-.787-.354-.787-.787-.787zM16 26.197c-1.6 0-2.905 1.305-2.905 2.905a2.905 2.905 0 0 0 5.81-.007c0-1.6-1.305-2.898-2.905-2.898zm0 4.229c-.734 0-1.331-.597-1.331-1.331s.597-1.331 1.331-1.331 1.331.597 1.331 1.331-.597 1.331-1.331 1.331zM16 10.957c.433 0 .787-.354.787-.787s-.354-.787-.787-.787-.787.354-.787.787a.79.79 0 0 0 .787.787zM16.787 7.593a.787.787 0 1 1-1.573 0 .787.787 0 0 1 1.573 0zM16 5.803c1.6 0 2.905-1.305 2.905-2.905a2.905 2.905 0 0 0-5.81.007c0 1.6 1.305 2.898 2.905 2.898zm0-4.229c.734 0 1.331.597 1.331 1.331S16.734 4.236 16 4.236s-1.331-.597-1.331-1.331.597-1.331 1.331-1.331zM11.325 19.567a.788.788 0 1 0 1.114 1.115.788.788 0 0 0-1.114-1.115zM10.846 21.941a.787.787 0 1 1-1.573 0 .787.787 0 0 1 1.573 0zM4.689 23.207a2.902 2.902 0 1 0 4.105 4.105 2.902 2.902 0 0 0 0-4.105 2.913 2.913 0 0 0-4.105 0zm2.99 2.996a1.325 1.325 0 1 1-1.875-1.874 1.325 1.325 0 0 1 1.875 1.874zM22.728 10.059a.787.787 0 1 1-1.573 0 .787.787 0 0 1 1.573 0zM20.911 11.875a.787.787 0 1 1-1.573 0 .787.787 0 0 1 1.573 0zM27.311 8.793a2.902 2.902 0 1 0-4.105-4.105 2.902 2.902 0 1 0 4.105 4.105zm-2.99-2.996a1.325 1.325 0 1 1 1.875 1.874 1.325 1.325 0 0 1-1.875-1.874zM22.728 21.941a.787.787 0 1 1-1.573 0 .787.787 0 0 1 1.573 0zM19.567 19.567a.788.788 0 1 0 1.114 1.115.788.788 0 0 0-1.114-1.115zM23.207 23.207a2.902 2.902 0 1 0 4.105 4.105 2.902 2.902 0 0 0 0-4.105 2.913 2.913 0 0 0-4.105 0zm2.996 2.996a1.325 1.325 0 1 1-1.875-1.874 1.325 1.325 0 0 1 1.875 1.874zM12.662 11.875a.787.787 0 1 1-1.573 0 .787.787 0 0 1 1.573 0zM10.846 10.059a.787.787 0 1 1-1.573 0 .787.787 0 0 1 1.573 0zM8.793 8.793a2.902 2.902 0 1 0-4.105-4.105 2.901 2.901 0 0 0 0 4.105 2.913 2.913 0 0 0 4.105 0zM5.797 5.797a1.325 1.325 0 1 1 1.875 1.874 1.325 1.325 0 0 1-1.875-1.874z"/></symbol><symbol id="icon-education" viewBox="0 0 32 32"><path d="M11.816 19.95a.8.8 0 0 0-.8-.8H9.272a.8.8 0 1 0 0 1.6h.944v.944a.8.8 0 1 0 1.6 0V19.95zM7.569 19.95a.8.8 0 0 0-.8-.8H5.025a.8.8 0 1 0 0 1.6h.944v.944a.8.8 0 1 0 1.6 0V19.95zM11.016 26.914a.8.8 0 0 0 .8-.8V24.37a.8.8 0 0 0-.8-.8H9.272a.8.8 0 1 0 0 1.6h.944v.944a.8.8 0 0 0 .8.8zM6.769 26.914a.8.8 0 0 0 .8-.8V24.37a.8.8 0 0 0-.8-.8H5.025a.8.8 0 1 0 0 1.6h.944v.944a.8.8 0 0 0 .8.8zM22.728 19.15h-1.744a.8.8 0 0 0-.8.8v1.744a.8.8 0 1 0 1.6 0v-.944h.944a.8.8 0 1 0 0-1.6zM26.974 19.15H25.23a.8.8 0 0 0-.8.8v1.744a.8.8 0 1 0 1.6 0v-.944h.944a.8.8 0 1 0 0-1.6zM22.728 23.57h-1.744a.8.8 0 0 0-.8.8v1.744a.8.8 0 1 0 1.6 0v-.944h.944a.8.8 0 1 0 0-1.6zM26.974 23.57H25.23a.8.8 0 0 0-.8.8v1.744a.8.8 0 1 0 1.6 0v-.944h.944a.8.8 0 1 0 0-1.6zM12.51 15.801c0 1.924 1.566 3.49 3.49 3.49s3.49-1.566 3.49-3.49-1.566-3.49-3.49-3.49a3.494 3.494 0 0 0-3.49 3.49zm5.38 0c0 1.042-.848 1.89-1.89 1.89s-1.89-.848-1.89-1.89c0-1.042.848-1.89 1.89-1.89s1.89.848 1.89 1.89zM29.816 17.69a.8.8 0 0 0-.8.8v.133a.8.8 0 1 0 1.6 0v-.133a.8.8 0 0 0-.8-.8z"/><path d="M29.816 20.257a.8.8 0 0 0-.8.8v8.406H18.942v-3.044c0-1.622-1.32-2.942-2.942-2.942s-2.942 1.32-2.942 2.942v3.044H2.984V16.127l4.287-4.386h3.146l-2.826 3.26H5.898a.8.8 0 1 0 0 1.6h2.059a.798.798 0 0 0 .604-.276L16 7.743l7.439 8.582a.8.8 0 0 0 .604.276h5.772a.8.8 0 0 0 .572-1.36l-4.75-4.86a.801.801 0 0 0-.572-.241h-4.87l-3.396-3.918v-.621c.085.011.168.016.25.016.478 0 .906-.172 1.268-.318.536-.216.999-.402 1.701-.236a.798.798 0 0 0 .985-.779V2.073a.803.803 0 0 0-.237-.569c-.409-.405-.895-.595-1.443-.565-.412.022-.791.164-1.158.301-.617.23-1.15.429-1.823.11v.001a.798.798 0 0 0-1.142.722v4.149l-3.396 3.918h-4.87a.8.8 0 0 0-.572.241l-4.75 4.86a.8.8 0 0 0-.228.559v14.462a.8.8 0 0 0 .8.8h11.674a.8.8 0 0 0 .8-.8v-3.844c0-.74.602-1.342 1.342-1.342s1.342.602 1.342 1.342v3.844a.8.8 0 0 0 .8.8h11.674a.8.8 0 0 0 .8-.8v-9.206a.8.8 0 0 0-.8-.8zm-5.087-8.516 3.187 3.26H24.41l-2.826-3.26h3.146zM18.725 2.74c.363-.135.557-.194.679-.201v.862c-.701.018-1.249.239-1.684.414-.508.205-.684.275-.92.112v-.82c.78.06 1.437-.185 1.925-.367z"/></symbol><symbol id="icon-favorite" viewBox="0 0 32 32"><path d="M16 0C9.228 0 3.718 5.51 3.718 12.282c0 2.705.863 5.272 2.495 7.421a12.4 12.4 0 0 0 5.781 4.192l2.959 7.398a1.126 1.126 0 0 0 2.092 0l2.959-7.398a12.389 12.389 0 0 0 5.781-4.192 12.172 12.172 0 0 0 2.495-7.421C28.28 5.51 22.771 0 15.998 0zm2.838 21.902a1.13 1.13 0 0 0-.728.662L16 27.839l-2.11-5.275a1.124 1.124 0 0 0-.728-.662c-4.234-1.247-7.19-5.203-7.19-9.62 0-5.53 4.499-10.028 10.028-10.028s10.028 4.499 10.028 10.028c0 4.418-2.957 8.374-7.19 9.62z"/><path d="M18.789 7.07c-1.09 0-2.078.448-2.789 1.17a3.903 3.903 0 0 0-2.789-1.17 3.92 3.92 0 0 0-3.916 3.916c0 1.506 1.032 3.184 3.154 5.13a26.978 26.978 0 0 0 2.925 2.315 1.126 1.126 0 0 0 1.25 0c.06-.04 1.483-.993 2.925-2.315 2.122-1.945 3.154-3.623 3.154-5.13a3.92 3.92 0 0 0-3.915-3.916zm-2.79 9.05c-2.023-1.467-4.45-3.77-4.45-5.134 0-.916.746-1.662 1.662-1.662s1.662.746 1.662 1.662a1.128 1.128 0 0 0 2.254 0c0-.916.746-1.662 1.662-1.662s1.662.746 1.662 1.662c0 1.36-2.428 3.664-4.451 5.134z"/></symbol><symbol id="icon-location" viewBox="0 0 32 32"><path d="M16 0C9.326 0 3.896 5.43 3.896 12.104c0 2.753 1.898 6.779 5.64 11.966a89.828 89.828 0 0 0 5.48 6.837L16.001 32l.985-1.093a89.828 89.828 0 0 0 5.48-6.837c3.742-5.187 5.64-9.213 5.64-11.966C28.106 5.43 22.676 0 16.001 0zm0 28.008c-3.334-3.898-9.454-11.883-9.454-15.904 0-5.213 4.241-9.454 9.454-9.454s9.453 4.241 9.453 9.454c0 4.021-6.119 12.006-9.454 15.904z"/><path d="M20.391 12.105a4.391 4.391 0 1 1-8.782 0 4.391 4.391 0 0 1 8.782 0z"/></symbol><symbol id="icon-phone" viewBox="0 0 32 32"><path d="m20.033 16.308-.931.931a49.945 49.945 0 0 1-4.524-4.527l.929-.929a4.799 4.799 0 0 0 0-6.788l-2.263-2.263a4.799 4.799 0 0 0-6.788 0L1.967 7.221a1.6 1.6 0 0 0-.368 1.691c3.799 10.177 10.909 17.335 21.293 21.3a1.6 1.6 0 0 0 1.702-.363l4.489-4.489a4.8 4.8 0 0 0 0-6.788l-2.263-2.263a4.799 4.799 0 0 0-6.788 0zm6.789 4.525a1.6 1.6 0 0 1 0 2.263l-3.746 3.746c-8.679-3.568-14.678-9.6-18.107-18.096L8.72 4.995a1.6 1.6 0 0 1 2.263 0l2.263 2.263a1.6 1.6 0 0 1 0 2.263l-1.974 1.974a1.6 1.6 0 0 0-.101 2.152 53.08 53.08 0 0 0 6.996 7.002 1.6 1.6 0 0 0 2.153-.1l1.977-1.977a1.6 1.6 0 0 1 2.263 0l2.263 2.263z"/></symbol><symbol id="icon-instagram" viewBox="0 0 32 32"><path d="M16 3.092c4.204 0 4.702.016 6.363.092 1.535.07 2.369.327 2.924.542.71.266 1.315.668 1.809 1.177l.001.001c.51.496.911 1.1 1.167 1.777l.011.034c.216.555.472 1.389.542 2.924.076 1.66.092 2.158.092 6.362s-.016 4.702-.092 6.363c-.07 1.535-.327 2.369-.542 2.924a5.244 5.244 0 0 1-2.953 2.976l-.035.012c-.555.216-1.389.472-2.924.542-1.66.076-2.158.092-6.363.092s-4.702-.016-6.363-.092c-1.535-.07-2.369-.327-2.924-.542a4.888 4.888 0 0 1-1.809-1.177l-.001-.001a4.892 4.892 0 0 1-1.167-1.777l-.011-.034c-.216-.555-.472-1.389-.542-2.924-.076-1.66-.092-2.158-.092-6.363s.016-4.702.092-6.363c.07-1.535.326-2.369.542-2.924a4.9 4.9 0 0 1 1.177-1.809l.001-.001c.496-.51 1.1-.911 1.777-1.167l.034-.011c.555-.216 1.389-.472 2.924-.542 1.66-.076 2.158-.092 6.362-.092zm0-2.837c-4.276 0-4.813.018-6.492.095-1.676.077-2.82.343-3.822.732a7.762 7.762 0 0 0-2.788 1.815l-.001.001a7.728 7.728 0 0 0-1.799 2.736l-.018.053C.691 6.689.425 7.833.349 9.509c-.077 1.679-.095 2.216-.095 6.492s.018 4.813.095 6.492c.077 1.676.343 2.82.732 3.822a7.762 7.762 0 0 0 1.815 2.788l.001.001a7.712 7.712 0 0 0 2.736 1.798l.053.018c1.002.389 2.146.655 3.822.732 1.679.077 2.216.095 6.492.095s4.813-.018 6.492-.095c1.676-.076 2.82-.343 3.822-.732a8.1 8.1 0 0 0 4.586-4.55l.019-.055c.389-1.002.655-2.146.732-3.822.077-1.679.095-2.216.095-6.492s-.018-4.813-.095-6.492c-.076-1.676-.343-2.82-.732-3.822a7.762 7.762 0 0 0-1.815-2.788l-.001-.001a7.737 7.737 0 0 0-2.736-1.799l-.053-.018C25.312.692 24.168.426 22.492.35 20.813.273 20.277.255 16 .255z"/><path d="M16 7.915A8.085 8.085 0 1 0 24.085 16 8.085 8.085 0 0 0 16 7.915zm0 13.333A5.248 5.248 0 1 1 21.248 16 5.248 5.248 0 0 1 16 21.248zM26.294 7.595a1.89 1.89 0 1 1-3.779 0 1.89 1.89 0 0 1 3.779 0z"/></symbol><symbol id="icon-facebook" viewBox="0 0 32 32"><path d="M15.495 28v-7.948h-3.124v-3.633h3.124v-2.673c0-3.099 1.895-4.788 4.66-4.788.932-.003 1.863.045 2.789.14v3.24H21.04c-1.507 0-1.8.712-1.8 1.763v2.313h3.6l-.468 3.633h-3.153V28h-3.724z"/><path d="M25.333 4H6.666a2.67 2.67 0 0 0-2.667 2.667v18.667a2.67 2.67 0 0 0 2.667 2.667h18.667A2.67 2.67 0 0 0 28 25.334V6.667A2.67 2.67 0 0 0 25.333 4zM6.667 25.333V6.666h18.667l.001 18.667H6.667z"/></symbol><symbol id="icon-tiktok" viewBox="0 0 32 32"><path d="M8 4C5.807 4 4 5.807 4 8v16c0 2.193 1.807 4 4 4h16c2.193 0 4-1.807 4-4V8c0-2.193-1.807-4-4-4H8zm0 2.667h16c.753 0 1.333.58 1.333 1.333v16c0 .753-.58 1.333-1.333 1.333H8c-.753 0-1.333-.58-1.333-1.333V8c0-.753.58-1.333 1.333-1.333zm8 2.666v9.333c0 .753-.58 1.333-1.333 1.333s-1.333-.58-1.333-1.333.58-1.333 1.333-1.333v-2.667c-2.193 0-4 1.807-4 4s1.807 4 4 4 4-1.807 4-4v-5.023c.822.585 1.679 1.023 2.667 1.023v-2.667c-.063 0-.983-.292-1.625-.852s-1.042-1.262-1.042-1.815H16z"/></symbol></defs></svg>