<svg aria-hidden="true" style="position: absolute; width: 0; height: 0; overflow: hidden;" version="1.1"
    xmlns="http://www.w3.org/2000/svg" xmlns:xlink="http://www.w3.org/1999/xlink">
    <defs>
        <symbol id="icon-close" viewBox="0 0 32 32">
            <path
                d="M1.646 32c-0.422 0-0.843-0.16-1.163-0.483-0.643-0.643-0.643-1.685 0-2.328l28.707-28.707c0.643-0.643 1.685-0.643 2.328 0s0.643 1.685 0 2.329l-28.707 28.706c-0.323 0.321-0.744 0.483-1.165 0.483z">
            </path>
            <path
                d="M30.355 32c-0.421 0-0.843-0.16-1.163-0.483l-28.709-28.706c-0.643-0.643-0.643-1.686 0-2.329s1.685-0.643 2.329 0l28.707 28.707c0.643 0.643 0.643 1.685 0 2.328-0.323 0.321-0.744 0.483-1.163 0.483z">
            </path>
        </symbol>

        <symbol id="icon-team" viewBox="0 0 32 32">
            <path
                d="M26.375 14.976c1.165-1.395 1.852-3.297 1.852-5.325 0-4.191-2.912-7.601-6.492-7.601-2.483 0-4.643 1.642-5.734 4.046-1.091-2.404-3.251-4.046-5.734-4.046-3.58 0-6.492 3.41-6.492 7.601 0 2.033 0.686 3.932 1.851 5.325-2.036 0.957-5.625 2.753-5.625 8.159v1.995h6.124c-0.245 0.813-0.39 1.747-0.39 2.826v1.995h20.531v-1.995c0-1.079-0.145-2.013-0.39-2.826h6.125v-1.995c0-5.405-3.589-7.201-5.625-8.158zM7.054 23.134h-5.060c0-6.006 5.275-6.004 6.445-7.575l0.134-0.716c-1.645-0.834-2.805-2.843-2.805-5.193 0-3.096 2.014-5.606 4.497-5.606 1.759 0 3.278 1.263 4.016 3.098-2.749 0.884-4.774 3.834-4.774 7.329 0 2.033 0.686 3.932 1.851 5.325-1.247 0.586-3.074 1.488-4.304 3.339zM16.058 27.955h-8.33c0-6.006 5.275-6.004 6.445-7.575l0.134-0.716c-1.645-0.834-2.805-2.843-2.805-5.193 0-3.096 2.014-5.606 4.497-5.606s4.497 2.51 4.497 5.606c0 2.33-1.14 4.327-2.763 5.173l0.153 0.814c1.284 1.494 6.383 1.592 6.383 7.497 0 0-8.212 0-8.212 0zM24.944 23.134c-1.231-1.85-3.058-2.752-4.304-3.338 1.165-1.395 1.852-3.297 1.852-5.325 0-3.495-2.026-6.444-4.773-7.328 0.738-1.836 2.257-3.098 4.016-3.098 2.484 0 4.497 2.51 4.497 5.606 0 2.33-1.14 4.327-2.763 5.173l0.153 0.814c1.284 1.494 6.383 1.592 6.383 7.496h-5.061z">
            </path>
        </symbol>

        <symbol id="icon-network" viewBox="0 0 32 32">
            <path
                d="M20.026 16c0-2.223-1.81-4.026-4.026-4.026s-4.026 1.803-4.026 4.026 1.81 4.026 4.026 4.026 4.026-1.803 4.026-4.026zM16 18.452c-1.351 0-2.452-1.102-2.452-2.452s1.102-2.452 2.452-2.452 2.452 1.102 2.452 2.452-1.102 2.452-2.452 2.452z">
            </path>
            <path
                d="M10.171 15.213c-0.433 0-0.787 0.354-0.787 0.787s0.354 0.787 0.787 0.787 0.787-0.354 0.787-0.787-0.354-0.787-0.787-0.787z">
            </path>
            <path
                d="M6.807 16c0 0.433 0.354 0.787 0.787 0.787s0.787-0.354 0.787-0.787-0.354-0.787-0.787-0.787-0.787 0.354-0.787 0.787z">
            </path>
            <path
                d="M5.803 16c0-1.6-1.305-2.905-2.905-2.905s-2.898 1.305-2.898 2.905 1.305 2.905 2.905 2.905 2.898-1.305 2.898-2.905zM2.905 17.331c-0.734 0-1.331-0.597-1.331-1.331s0.597-1.331 1.331-1.331 1.331 0.597 1.331 1.331-0.603 1.331-1.331 1.331z">
            </path>
            <path
                d="M25.193 16c0 0.435-0.352 0.787-0.787 0.787s-0.787-0.352-0.787-0.787c0-0.435 0.352-0.787 0.787-0.787s0.787 0.352 0.787 0.787z">
            </path>
            <path
                d="M21.829 16.787c0.433 0 0.787-0.354 0.787-0.787s-0.354-0.787-0.787-0.787-0.787 0.354-0.787 0.787 0.354 0.787 0.787 0.787z">
            </path>
            <path
                d="M29.095 13.095c-1.6 0-2.905 1.305-2.905 2.905s1.305 2.905 2.905 2.905 2.905-1.305 2.905-2.905-1.305-2.905-2.905-2.905zM29.095 17.331c-0.734 0-1.331-0.597-1.331-1.331s0.597-1.331 1.331-1.331 1.331 0.597 1.331 1.331c0 0.734-0.597 1.331-1.331 1.331z">
            </path>
            <path
                d="M16 21.043c-0.433 0-0.787 0.354-0.787 0.787s0.354 0.787 0.787 0.787 0.787-0.354 0.787-0.787-0.354-0.787-0.787-0.787z">
            </path>
            <path
                d="M16 23.62c-0.433 0-0.787 0.354-0.787 0.787s0.354 0.787 0.787 0.787 0.787-0.354 0.787-0.787-0.354-0.787-0.787-0.787z">
            </path>
            <path
                d="M16 26.197c-1.6 0-2.905 1.305-2.905 2.905s1.305 2.898 2.905 2.898 2.905-1.305 2.905-2.905-1.305-2.898-2.905-2.898zM16 30.426c-0.734 0-1.331-0.597-1.331-1.331s0.597-1.331 1.331-1.331c0.734 0 1.331 0.597 1.331 1.331s-0.597 1.331-1.331 1.331z">
            </path>
            <path
                d="M16 10.957c0.433 0 0.787-0.354 0.787-0.787s-0.354-0.787-0.787-0.787-0.787 0.354-0.787 0.787c0 0.433 0.354 0.787 0.787 0.787z">
            </path>
            <path
                d="M16.787 7.593c0 0.435-0.352 0.787-0.787 0.787s-0.787-0.352-0.787-0.787c0-0.435 0.352-0.787 0.787-0.787s0.787 0.352 0.787 0.787z">
            </path>
            <path
                d="M16 5.803c1.6 0 2.905-1.305 2.905-2.905s-1.305-2.898-2.905-2.898-2.905 1.305-2.905 2.905 1.305 2.898 2.905 2.898zM16 1.574c0.734 0 1.331 0.597 1.331 1.331s-0.597 1.331-1.331 1.331-1.331-0.597-1.331-1.331 0.597-1.331 1.331-1.331z">
            </path>
            <path
                d="M11.325 19.567c-0.308 0.308-0.308 0.807 0 1.115s0.807 0.308 1.115 0 0.308-0.807 0-1.115c-0.315-0.308-0.813-0.308-1.115 0z">
            </path>
            <path
                d="M10.846 21.941c0 0.435-0.352 0.787-0.787 0.787s-0.787-0.352-0.787-0.787c0-0.435 0.352-0.787 0.787-0.787s0.787 0.352 0.787 0.787z">
            </path>
            <path
                d="M4.689 23.207c-1.134 1.134-1.134 2.971 0 4.105s2.971 1.134 4.105 0 1.134-2.971 0-4.105c-1.134-1.128-2.977-1.128-4.105 0zM7.679 26.203c-0.518 0.518-1.357 0.518-1.875 0s-0.518-1.357 0-1.875 1.357-0.518 1.875 0c0.518 0.511 0.518 1.357 0 1.875z">
            </path>
            <path
                d="M22.728 10.059c0 0.435-0.352 0.787-0.787 0.787s-0.787-0.352-0.787-0.787c0-0.435 0.352-0.787 0.787-0.787s0.787 0.352 0.787 0.787z">
            </path>
            <path
                d="M20.911 11.875c0 0.435-0.352 0.787-0.787 0.787s-0.787-0.352-0.787-0.787c0-0.435 0.352-0.787 0.787-0.787s0.787 0.352 0.787 0.787z">
            </path>
            <path
                d="M27.311 8.793c1.134-1.134 1.134-2.97 0-4.105s-2.971-1.134-4.105 0-1.134 2.971 0 4.105 2.977 1.128 4.105 0zM24.321 5.797c0.518-0.518 1.357-0.518 1.875 0s0.518 1.357 0 1.875-1.357 0.518-1.875 0c-0.518-0.511-0.518-1.357 0-1.875z">
            </path>
            <path
                d="M22.728 21.941c0 0.435-0.352 0.787-0.787 0.787s-0.787-0.352-0.787-0.787c0-0.435 0.352-0.787 0.787-0.787s0.787 0.352 0.787 0.787z">
            </path>
            <path
                d="M19.567 19.567c-0.308 0.308-0.308 0.807 0 1.115s0.807 0.308 1.115 0 0.308-0.807 0-1.115c-0.308-0.308-0.807-0.308-1.115 0z">
            </path>
            <path
                d="M23.207 23.207c-1.134 1.134-1.134 2.971 0 4.105s2.971 1.134 4.105 0 1.134-2.971 0-4.105c-1.128-1.128-2.971-1.128-4.105 0zM26.203 26.203c-0.518 0.518-1.357 0.518-1.875 0s-0.518-1.357 0-1.875 1.357-0.518 1.875 0c0.518 0.511 0.518 1.357 0 1.875z">
            </path>
            <path
                d="M12.662 11.875c0 0.435-0.352 0.787-0.787 0.787s-0.787-0.352-0.787-0.787c0-0.435 0.352-0.787 0.787-0.787s0.787 0.352 0.787 0.787z">
            </path>
            <path
                d="M10.846 10.059c0 0.435-0.352 0.787-0.787 0.787s-0.787-0.352-0.787-0.787c0-0.435 0.352-0.787 0.787-0.787s0.787 0.352 0.787 0.787z">
            </path>
            <path
                d="M8.793 8.793c1.134-1.134 1.134-2.97 0-4.105s-2.97-1.134-4.105 0-1.134 2.971 0 4.105c1.128 1.128 2.971 1.128 4.105 0zM5.797 5.797c0.518-0.518 1.357-0.518 1.875 0s0.518 1.357 0 1.875-1.357 0.518-1.875 0c-0.518-0.511-0.518-1.357 0-1.875z">
            </path>
        </symbol>

        <symbol id="icon-education" viewBox="0 0 32 32">
            <path
                d="M11.816 19.95c0-0.442-0.358-0.8-0.8-0.8h-1.744c-0.442 0-0.8 0.358-0.8 0.8s0.358 0.8 0.8 0.8h0.944v0.944c0 0.442 0.358 0.8 0.8 0.8s0.8-0.358 0.8-0.8v-1.744z">
            </path>
            <path
                d="M7.569 19.95c0-0.442-0.358-0.8-0.8-0.8h-1.744c-0.442 0-0.8 0.358-0.8 0.8s0.358 0.8 0.8 0.8h0.944v0.944c0 0.442 0.358 0.8 0.8 0.8s0.8-0.358 0.8-0.8v-1.744z">
            </path>
            <path
                d="M11.016 26.914c0.442 0 0.8-0.358 0.8-0.8v-1.744c0-0.442-0.358-0.8-0.8-0.8h-1.744c-0.442 0-0.8 0.358-0.8 0.8s0.358 0.8 0.8 0.8h0.944v0.944c0 0.442 0.358 0.8 0.8 0.8z">
            </path>
            <path
                d="M6.769 26.914c0.442 0 0.8-0.358 0.8-0.8v-1.744c0-0.442-0.358-0.8-0.8-0.8h-1.744c-0.442 0-0.8 0.358-0.8 0.8s0.358 0.8 0.8 0.8h0.944v0.944c0 0.442 0.358 0.8 0.8 0.8z">
            </path>
            <path
                d="M22.728 19.15h-1.744c-0.442 0-0.8 0.358-0.8 0.8v1.744c0 0.442 0.358 0.8 0.8 0.8s0.8-0.358 0.8-0.8v-0.944h0.944c0.442 0 0.8-0.358 0.8-0.8s-0.358-0.8-0.8-0.8z">
            </path>
            <path
                d="M26.974 19.15h-1.744c-0.442 0-0.8 0.358-0.8 0.8v1.744c0 0.442 0.358 0.8 0.8 0.8s0.8-0.358 0.8-0.8v-0.944h0.944c0.442 0 0.8-0.358 0.8-0.8s-0.358-0.8-0.8-0.8z">
            </path>
            <path
                d="M22.728 23.57h-1.744c-0.442 0-0.8 0.358-0.8 0.8v1.744c0 0.442 0.358 0.8 0.8 0.8s0.8-0.358 0.8-0.8v-0.944h0.944c0.442 0 0.8-0.358 0.8-0.8s-0.358-0.8-0.8-0.8z">
            </path>
            <path
                d="M26.974 23.57h-1.744c-0.442 0-0.8 0.358-0.8 0.8v1.744c0 0.442 0.358 0.8 0.8 0.8s0.8-0.358 0.8-0.8v-0.944h0.944c0.442 0 0.8-0.358 0.8-0.8s-0.358-0.8-0.8-0.8z">
            </path>
            <path
                d="M12.51 15.801c0 1.924 1.566 3.49 3.49 3.49s3.49-1.566 3.49-3.49-1.566-3.49-3.49-3.49c-1.924 0-3.49 1.566-3.49 3.49zM17.89 15.801c0 1.042-0.848 1.89-1.89 1.89s-1.89-0.848-1.89-1.89c0-1.042 0.848-1.89 1.89-1.89s1.89 0.848 1.89 1.89z">
            </path>
            <path
                d="M29.816 17.69c-0.442 0-0.8 0.358-0.8 0.8v0.133c0 0.442 0.358 0.8 0.8 0.8s0.8-0.358 0.8-0.8v-0.133c0-0.442-0.358-0.8-0.8-0.8z">
            </path>
            <path
                d="M29.816 20.257c-0.442 0-0.8 0.358-0.8 0.8v8.406h-10.074v-3.044c0-1.622-1.32-2.942-2.942-2.942s-2.942 1.32-2.942 2.942v3.044h-10.074v-13.336l4.287-4.386h3.146l-2.826 3.26h-1.693c-0.442 0-0.8 0.358-0.8 0.8s0.358 0.8 0.8 0.8h2.059c0.232 0 0.453-0.101 0.604-0.276l7.439-8.582 7.439 8.582c0.158 0.182 0.381 0.276 0.604 0.276v0h5.772c0.322 0 0.612-0.193 0.737-0.49s0.060-0.639-0.165-0.87l-4.75-4.86c-0.151-0.154-0.357-0.241-0.572-0.241h-4.87l-3.396-3.918v-0.621c0.085 0.011 0.168 0.016 0.25 0.016 0.478-0 0.906-0.172 1.268-0.318 0.536-0.216 0.999-0.402 1.701-0.236 0.238 0.057 0.489 0.001 0.681-0.151s0.304-0.383 0.304-0.628v-2.211c0-0.214-0.086-0.419-0.237-0.569-0.409-0.405-0.895-0.595-1.443-0.565-0.412 0.022-0.791 0.164-1.158 0.301-0.617 0.23-1.15 0.429-1.823 0.11-0 0-0 0-0 0.001-0.104-0.049-0.219-0.078-0.342-0.078-0.442 0-0.8 0.358-0.8 0.8v4.149l-3.396 3.918h-4.87c-0.215 0-0.422 0.087-0.572 0.241l-4.75 4.86c-0.146 0.149-0.228 0.35-0.228 0.559v14.462c0 0.442 0.358 0.8 0.8 0.8h11.674c0.442 0 0.8-0.358 0.8-0.8v-3.844c0-0.74 0.602-1.342 1.342-1.342s1.342 0.602 1.342 1.342v3.844c0 0.442 0.358 0.8 0.8 0.8h11.674c0.442 0 0.8-0.358 0.8-0.8v-9.206c-0-0.442-0.358-0.8-0.8-0.8zM24.729 11.741l3.187 3.26h-3.506l-2.826-3.26h3.146zM18.725 2.74c0.363-0.135 0.557-0.194 0.679-0.201v0.862c-0.701 0.018-1.249 0.239-1.684 0.414-0.508 0.205-0.684 0.275-0.92 0.112v-0.82c0.78 0.060 1.437-0.185 1.925-0.367z">
            </path>
        </symbol>

        <symbol id="icon-favorite" viewBox="0 0 32 32">
            <path
                d="M16 0c-6.772 0-12.282 5.51-12.282 12.282 0 2.705 0.863 5.272 2.495 7.421 1.466 1.93 3.503 3.403 5.781 4.192l2.959 7.398c0.171 0.428 0.585 0.708 1.046 0.708s0.875-0.28 1.046-0.708l2.959-7.398c2.278-0.788 4.316-2.262 5.781-4.192 1.632-2.149 2.495-4.715 2.495-7.421 0-6.772-5.509-12.282-12.282-12.282zM18.838 21.902c-0.331 0.098-0.6 0.342-0.728 0.662l-2.11 5.275-2.11-5.275c-0.128-0.321-0.397-0.565-0.728-0.662-4.234-1.247-7.19-5.203-7.19-9.62 0-5.53 4.499-10.028 10.028-10.028s10.028 4.499 10.028 10.028c0 4.418-2.957 8.374-7.19 9.62z">
            </path>
            <path
                d="M18.789 7.070c-1.090 0-2.078 0.448-2.789 1.17-0.711-0.722-1.698-1.17-2.789-1.17-2.159 0-3.916 1.757-3.916 3.916 0 1.506 1.032 3.184 3.154 5.13 1.442 1.322 2.865 2.275 2.925 2.315 0.189 0.126 0.407 0.189 0.625 0.189s0.436-0.063 0.625-0.189c0.060-0.040 1.483-0.993 2.925-2.315 2.122-1.945 3.154-3.623 3.154-5.13 0-2.159-1.756-3.916-3.915-3.916zM15.999 16.12c-2.023-1.467-4.45-3.77-4.45-5.134 0-0.916 0.746-1.662 1.662-1.662s1.662 0.746 1.662 1.662c0 0.622 0.505 1.127 1.127 1.127s1.127-0.505 1.127-1.127c0-0.916 0.746-1.662 1.662-1.662s1.662 0.746 1.662 1.662c0 1.36-2.428 3.664-4.451 5.134z">
            </path>
        </symbol>

        <symbol id="icon-location" viewBox="0 0 32 32">
            <path
                d="M16 0c-6.674 0-12.104 5.43-12.104 12.104 0 2.753 1.898 6.779 5.64 11.966 2.706 3.75 5.368 6.713 5.48 6.837l0.985 1.093 0.985-1.093c0.112-0.124 2.774-3.087 5.48-6.837 3.742-5.187 5.64-9.213 5.64-11.966-0-6.674-5.43-12.104-12.105-12.104zM16 28.008c-3.334-3.898-9.454-11.883-9.454-15.904 0-5.213 4.241-9.454 9.454-9.454s9.453 4.241 9.453 9.454c0 4.021-6.119 12.006-9.454 15.904z">
            </path>
            <path
                d="M20.391 12.105c0 2.425-1.966 4.391-4.391 4.391s-4.391-1.966-4.391-4.391c0-2.425 1.966-4.391 4.391-4.391s4.391 1.966 4.391 4.391z">
            </path>
        </symbol>

        <symbol id="icon-phone" viewBox="0 0 32 32">
            <path
                d="M20.033 16.308l-0.931 0.931c-1.604-1.411-3.111-2.92-4.524-4.527l0.929-0.929c1.875-1.874 1.875-4.914 0-6.788l-2.263-2.263c-1.874-1.875-4.914-1.875-6.788 0l-4.489 4.489c-0.443 0.443-0.587 1.104-0.368 1.691 3.799 10.177 10.909 17.335 21.293 21.3 0.589 0.225 1.256 0.083 1.702-0.363l4.489-4.489c1.874-1.874 1.874-4.914 0-6.788l-2.263-2.263c-1.875-1.875-4.914-1.875-6.788 0zM26.822 20.833c0.625 0.625 0.625 1.638 0 2.263l-3.746 3.746c-8.679-3.568-14.678-9.6-18.107-18.096l3.751-3.751c0.625-0.625 1.638-0.625 2.263 0l2.263 2.263c0.625 0.625 0.625 1.638 0 2.263l-1.974 1.974c-0.584 0.584-0.628 1.516-0.101 2.152 2.116 2.554 4.449 4.889 6.996 7.002 0.636 0.527 1.569 0.484 2.153-0.1l1.977-1.977c0.625-0.625 1.638-0.625 2.263 0l2.263 2.263z">
            </path>
        </symbol>

        <symbol id="icon-instagram" viewBox="0 0 32 32">
            <path
                d="M16 3.092c4.204 0 4.702 0.016 6.363 0.092 1.535 0.070 2.369 0.327 2.924 0.542 0.71 0.266 1.315 0.668 1.809 1.177l0.001 0.001c0.51 0.496 0.911 1.1 1.167 1.777l0.011 0.034c0.216 0.555 0.472 1.389 0.542 2.924 0.076 1.66 0.092 2.158 0.092 6.362s-0.016 4.702-0.092 6.363c-0.070 1.535-0.327 2.369-0.542 2.924-0.541 1.377-1.611 2.447-2.953 2.976l-0.035 0.012c-0.555 0.216-1.389 0.472-2.924 0.542-1.66 0.076-2.158 0.092-6.363 0.092s-4.702-0.016-6.363-0.092c-1.535-0.070-2.369-0.327-2.924-0.542-0.71-0.266-1.315-0.668-1.809-1.177l-0.001-0.001c-0.51-0.496-0.911-1.1-1.167-1.777l-0.011-0.034c-0.216-0.555-0.472-1.389-0.542-2.924-0.076-1.66-0.092-2.158-0.092-6.363s0.016-4.702 0.092-6.363c0.070-1.535 0.326-2.369 0.542-2.924 0.267-0.71 0.668-1.315 1.177-1.809l0.001-0.001c0.496-0.51 1.1-0.911 1.777-1.167l0.034-0.011c0.555-0.216 1.389-0.472 2.924-0.542 1.66-0.076 2.158-0.092 6.362-0.092zM16 0.255c-4.276 0-4.813 0.018-6.492 0.095-1.676 0.077-2.82 0.343-3.822 0.732-1.091 0.418-2.022 1.035-2.788 1.815l-0.001 0.001c-0.781 0.767-1.399 1.697-1.799 2.736l-0.018 0.053c-0.389 1.002-0.655 2.146-0.731 3.822-0.077 1.679-0.095 2.216-0.095 6.492s0.018 4.813 0.095 6.492c0.077 1.676 0.343 2.82 0.732 3.822 0.418 1.091 1.035 2.022 1.815 2.788l0.001 0.001c0.767 0.781 1.697 1.399 2.736 1.798l0.053 0.018c1.002 0.389 2.146 0.655 3.822 0.732 1.679 0.077 2.216 0.095 6.492 0.095s4.813-0.018 6.492-0.095c1.676-0.076 2.82-0.343 3.822-0.732 2.121-0.836 3.769-2.484 4.586-4.55l0.019-0.055c0.389-1.002 0.655-2.146 0.732-3.822 0.077-1.679 0.095-2.216 0.095-6.492s-0.018-4.813-0.095-6.492c-0.076-1.676-0.343-2.82-0.732-3.822-0.418-1.091-1.035-2.022-1.815-2.788l-0.001-0.001c-0.767-0.781-1.698-1.399-2.736-1.799l-0.053-0.018c-1.002-0.389-2.146-0.655-3.822-0.731-1.679-0.077-2.215-0.095-6.492-0.095v0z">
            </path>
            <path
                d="M16 7.915c-4.465 0-8.085 3.62-8.085 8.085s3.62 8.085 8.085 8.085c4.465 0 8.085-3.62 8.085-8.085v0c0-4.465-3.62-8.085-8.085-8.085v0zM16 21.248c-2.899-0-5.248-2.35-5.248-5.248s2.35-5.248 5.248-5.248c2.899 0 5.248 2.35 5.248 5.248v0c-0 2.899-2.35 5.248-5.248 5.248v0z">
            </path>
            <path
                d="M26.294 7.595c0 1.043-0.846 1.889-1.889 1.889s-1.889-0.846-1.889-1.889c0-1.043 0.846-1.889 1.889-1.889s1.889 0.846 1.889 1.889z">
            </path>
        </symbol>


        <symbol id="icon-facebook" viewBox="0 0 32 32">
            <path
                d="M15.495 28v-7.948h-3.124v-3.633h3.124v-2.673c0-3.099 1.895-4.788 4.66-4.788 0.932-0.003 1.863 0.045 2.789 0.14v3.24h-1.904c-1.507 0-1.8 0.712-1.8 1.763v2.313h3.6l-0.468 3.633h-3.153v7.953h-3.724z">
            </path>
            <path
                d="M25.333 4h-18.667c-1.471 0-2.667 1.196-2.667 2.667v18.667c0 1.471 1.196 2.667 2.667 2.667h18.667c1.471 0 2.667-1.196 2.667-2.667v-18.667c0-1.471-1.196-2.667-2.667-2.667zM6.667 25.333v-18.667h18.667l0.001 18.667h-18.668z">
            </path>
        </symbol>

        <symbol id="icon-tiktok" viewBox="0 0 32 32">
            <path
                d="M8 4c-2.193 0-4 1.807-4 4v16c0 2.193 1.807 4 4 4h16c2.193 0 4-1.807 4-4v-16c0-2.193-1.807-4-4-4h-16zM8 6.667h16c0.753 0 1.333 0.58 1.333 1.333v16c0 0.753-0.58 1.333-1.333 1.333h-16c-0.753 0-1.333-0.58-1.333-1.333v-16c0-0.753 0.58-1.333 1.333-1.333zM16 9.333v9.333c0 0.753-0.58 1.333-1.333 1.333s-1.333-0.58-1.333-1.333c0-0.753 0.58-1.333 1.333-1.333v-2.667c-2.193 0-4 1.807-4 4s1.807 4 4 4c2.193 0 4-1.807 4-4v-5.023c0.822 0.585 1.679 1.023 2.667 1.023v-2.667c-0.063 0-0.983-0.292-1.625-0.852s-1.042-1.262-1.042-1.815h-2.667z">
            </path>
        </symbol>

    </defs>
</svg>